# xmcd CD database file
#
# Track frame offsets:
#	150
#	14177
#	34050
#	55418
#	75257
#	95689
#	112084
#	132240
#
# Disc length: 2031 seconds
#
# Revision: 0
# Processed by: cddbd v1.5.2PL0 Copyright (c) Steve Scherf et al.
# Submitted via: CDex 1.70beta3
#
DISCID=6907ed08
DTITLE=PE'Z - 1・2・MAX
DYEAR=2010
DGENRE=Jazz
TTITLE0=Csikos Post ～クシコスポスト～
TTITLE1=1・2・MAX
TTITLE2=サクラロード ～夢ノトオリミチ～
TTITLE3=ミラクルサンダース
TTITLE4=くらむちゃうだー
TTITLE5=万歳。
TTITLE6=花散れど我散らず
TTITLE7=Woo-ha!!
EXTD=YEAR: 2010
EXTT0=
EXTT1=
EXTT2=
EXTT3=
EXTT4=
EXTT5=
EXTT6=
EXTT7=
PLAYORDER=
